<?xml version="1.0" standalone="no"?>
<!DOCTYPE svg PUBLIC "-//W3C//DTD SVG 20010904//EN"
 "http://www.w3.org/TR/2001/REC-SVG-20010904/DTD/svg10.dtd">
<svg version="1.0" xmlns="http://www.w3.org/2000/svg"
 width="2560.000000pt" height="1579.000000pt" viewBox="0 0 2560.000000 1579.000000"
 preserveAspectRatio="xMidYMid meet">
<metadata>
Created by potrace 1.14, written by Peter Selinger 2001-2017
</metadata>
<g transform="translate(0.000000,1579.000000) scale(0.100000,-0.100000)"
fill="#000000" stroke="none">
<path d="M12400 14855 c-363 -33 -744 -111 -938 -191 -234 -96 -572 -303 -736
-450 -161 -143 -380 -389 -464 -518 -123 -193 -200 -373 -233 -551 -21 -111
-22 -129 -11 -256 9 -118 17 -157 58 -281 46 -142 130 -320 194 -413 101 -147
229 -253 510 -423 316 -190 765 -353 1108 -403 46 -6 80 -15 75 -19 -4 -4 -66
-10 -138 -13 -126 -5 -762 -80 -773 -91 -3 -4 -3 -9 0 -12 9 -8 717 34 833 50
178 24 345 36 560 39 175 3 215 6 243 20 l32 18 -21 22 c-11 12 -32 42 -46 67
-15 25 -74 126 -133 225 -59 99 -131 227 -160 285 -82 165 -202 380 -212 380
-11 0 -12 1 26 -103 40 -110 111 -256 189 -389 60 -102 254 -394 295 -443 l25
-30 -129 -3 c-160 -4 -324 10 -564 50 -288 47 -461 94 -719 198 -339 136 -737
375 -847 509 -96 115 -186 277 -253 453 -61 161 -71 203 -77 338 -6 114 -4
135 20 236 46 190 173 423 338 619 42 50 152 164 245 255 135 133 193 182 298
252 143 95 390 234 494 278 233 99 711 195 1131 226 302 22 857 -159 1211
-397 204 -136 405 -371 532 -624 24 -48 89 -216 109 -280 35 -114 27 -371 -16
-525 -59 -213 -232 -523 -465 -835 -83 -112 -290 -355 -301 -355 -4 0 -108
-99 -231 -221 -123 -122 -264 -252 -314 -289 -49 -37 -101 -80 -114 -94 -14
-14 -35 -26 -48 -26 -13 0 -23 -4 -23 -10 0 -16 32 -12 61 8 14 9 64 42 110
73 118 79 244 181 384 312 66 62 154 142 196 179 140 125 323 348 484 593 291
442 382 715 355 1070 -16 215 -131 494 -293 711 -213 285 -461 464 -873 629
-350 141 -622 182 -984 150z"/>
<path d="M3850 14494 c-330 -42 -876 -187 -1074 -286 -274 -137 -630 -433
-764 -635 -228 -341 -279 -639 -178 -1039 69 -273 102 -345 267 -589 141 -208
329 -409 479 -513 105 -72 271 -195 267 -197 -1 -1 -69 2 -152 6 -149 7 -207
15 -452 64 -106 21 -305 43 -400 45 -80 1 75 -45 217 -65 25 -3 101 -17 170
-30 225 -44 325 -55 499 -55 166 0 170 0 199 -25 17 -14 37 -25 45 -25 16 0
48 39 60 72 3 10 18 20 32 24 14 3 25 10 25 14 0 5 -9 6 -20 3 l-21 -6 20 52
c26 64 65 206 81 291 9 50 137 454 175 553 4 9 3 17 -2 17 -4 0 -29 -39 -55
-87 -55 -105 -127 -321 -162 -493 -28 -134 -73 -309 -84 -327 -4 -6 -30 -15
-58 -21 l-52 -9 -93 76 c-52 41 -142 111 -200 156 -157 120 -374 372 -519 605
-112 182 -131 225 -191 440 l-52 185 -1 190 c0 172 2 196 23 255 41 119 137
304 205 395 116 155 407 404 620 532 116 69 163 90 305 137 224 75 682 189
861 215 399 58 800 -9 1320 -219 229 -93 342 -152 445 -235 123 -99 186 -179
355 -455 103 -168 136 -257 166 -445 25 -156 7 -328 -61 -564 -40 -137 -83
-238 -232 -534 -228 -458 -443 -758 -733 -1023 -35 -32 -77 -74 -93 -91 -16
-18 -35 -33 -43 -33 -8 0 -14 -5 -14 -11 0 -18 28 -2 118 69 117 91 350 319
427 417 184 235 271 372 433 685 112 216 165 346 208 516 80 316 83 506 13
762 -26 93 -43 131 -129 286 -94 170 -158 263 -241 350 -136 144 -270 229
-544 346 -262 112 -339 138 -620 209 -228 57 -552 76 -795 45z"/>
<path d="M12188 14373 l-108 -76 0 -49 c0 -26 4 -48 8 -48 5 0 48 29 97 65 49
36 93 65 97 65 10 0 11 -481 1 -597 l-6 -82 -111 -3 -111 -3 -3 -47 -3 -48
286 0 286 0 -3 48 -3 47 -107 3 -108 3 0 399 0 400 -52 0 c-50 -1 -60 -6 -160
-77z"/>
<path d="M3765 14140 c-175 -57 -254 -243 -242 -575 9 -262 68 -395 205 -462
51 -25 68 -28 152 -28 79 1 103 5 145 25 97 48 157 132 197 278 29 104 31 371
5 477 -52 206 -144 293 -319 301 -64 3 -97 0 -143 -16z m215 -112 c99 -50 136
-178 127 -443 -5 -174 -23 -256 -71 -326 -49 -72 -157 -99 -242 -60 -82 37
-119 120 -135 295 -11 124 1 311 25 390 8 26 26 65 39 86 51 76 168 103 257
58z"/>
<path d="M21340 13904 c-205 -12 -492 -57 -730 -116 -195 -48 -286 -79 -469
-160 -171 -75 -230 -108 -411 -227 -126 -83 -167 -117 -310 -261 -260 -259
-380 -455 -457 -741 -26 -97 -28 -116 -26 -284 1 -157 5 -199 31 -330 73 -362
194 -610 406 -832 155 -163 275 -250 568 -412 l57 -31 17 25 c20 30 26 63 60
290 35 242 80 410 139 525 26 50 97 252 90 258 -3 3 -7 3 -9 1 -10 -12 -129
-235 -147 -276 -55 -124 -98 -328 -114 -538 -7 -86 -22 -199 -31 -228 -5 -16
-8 -16 -42 4 -274 166 -477 338 -604 514 -41 57 -138 215 -169 277 -37 72 -98
261 -130 400 -32 142 -54 374 -43 463 16 129 95 345 170 463 59 93 173 229
305 363 174 177 359 308 614 433 105 52 220 106 258 120 193 76 665 185 889
207 247 23 345 23 469 -4 233 -50 405 -165 564 -375 69 -91 157 -261 193 -372
46 -142 64 -377 42 -532 -37 -253 -249 -646 -606 -1123 -193 -259 -521 -596
-749 -770 -123 -94 -182 -148 -248 -223 -16 -17 -35 -32 -43 -32 -8 0 -14 -4
-14 -10 0 -24 43 1 110 65 30 29 84 72 120 97 36 25 97 67 135 93 129 89 383
314 561 497 255 261 558 708 708 1043 110 246 139 531 85 820 -35 185 -166
443 -302 592 -188 205 -452 321 -752 328 -66 1 -149 1 -185 -1z"/>
<path d="M20410 13168 c-94 -48 -140 -168 -140 -367 0 -232 77 -343 240 -345
166 -2 252 134 252 394 -1 171 -47 281 -136 321 -60 27 -159 25 -216 -3z m189
-75 c54 -40 66 -84 66 -243 0 -176 -16 -241 -70 -289 -30 -26 -44 -31 -87 -31
-45 0 -54 4 -88 38 -51 50 -65 117 -57 272 9 172 35 239 107 269 34 15 98 6
129 -16z"/>
<path d="M21288 13102 c-85 -55 -88 -58 -88 -96 0 -45 4 -45 90 14 32 22 61
40 64 40 8 0 7 -189 -1 -382 l-6 -158 -87 0 -88 0 -4 -36 c-2 -19 -2 -37 1
-38 3 -2 103 -7 222 -11 l217 -7 4 36 c2 20 2 39 -1 41 -2 3 -42 5 -88 5 l-83
0 0 28 c0 15 5 157 10 316 6 159 9 290 8 292 -2 2 -22 5 -43 8 -36 5 -49 0
-127 -52z"/>
<path d="M20906 12544 c-3 -9 -6 -33 -6 -55 0 -35 3 -39 25 -39 24 0 24 0 10
-46 -8 -26 -19 -52 -24 -57 -19 -19 -12 -28 22 -25 29 3 34 8 49 53 9 28 17
80 18 118 l0 67 -44 0 c-31 0 -46 -5 -50 -16z"/>
<path d="M11870 10951 c-322 -59 -511 -116 -605 -181 -39 -27 -171 -110 -295
-185 -124 -75 -226 -140 -228 -145 -7 -18 17 -19 54 -1 110 53 236 100 223 84
-8 -10 -40 -48 -71 -85 -174 -206 -439 -682 -558 -1003 -64 -172 -132 -407
-156 -540 -29 -156 -25 -410 11 -580 34 -169 81 -306 150 -447 80 -163 138
-236 238 -303 119 -79 222 -105 414 -105 152 0 214 10 393 61 207 59 523 234
745 412 324 261 688 763 849 1171 72 180 117 518 96 705 -23 199 -49 314 -117
506 -93 261 -270 468 -492 576 -127 62 -198 78 -366 84 -112 4 -151 1 -285
-24z m390 -56 c245 -35 450 -192 593 -455 85 -155 174 -466 193 -671 10 -112
-12 -305 -50 -454 -61 -233 -193 -485 -423 -807 -109 -152 -315 -386 -414
-470 -248 -208 -526 -372 -762 -448 -160 -51 -191 -58 -323 -66 -239 -14 -407
60 -513 225 -103 161 -199 409 -246 636 -7 38 -17 131 -20 205 -6 113 -4 155
14 255 48 278 193 692 349 994 68 132 214 388 262 461 85 126 221 285 258 301
20 9 62 32 92 51 85 54 166 92 273 127 81 27 103 31 127 22 17 -5 30 -7 30 -4
0 3 6 0 14 -6 9 -8 16 -9 21 -2 3 6 -6 13 -20 17 -42 11 -28 22 48 38 350 73
343 73 497 51z"/>
<path d="M11720 10029 c-109 -21 -277 -97 -374 -168 -88 -65 -356 -292 -356
-302 0 -17 20 -8 117 50 54 33 99 58 100 57 2 -1 -11 -28 -28 -59 -49 -90
-118 -271 -155 -406 -27 -98 -34 -143 -34 -213 0 -188 66 -485 121 -545 13
-14 56 -41 94 -60 58 -28 77 -33 112 -28 68 10 258 81 352 131 116 62 166 101
298 232 155 154 297 345 389 522 l39 75 0 145 c-1 171 -14 227 -76 315 -90
129 -136 171 -239 225 -96 49 -100 50 -182 49 -45 -1 -126 -10 -178 -20z m297
-85 c80 -38 169 -119 234 -211 37 -54 68 -188 69 -297 0 -74 -3 -84 -42 -155
-53 -98 -182 -290 -256 -383 -33 -40 -106 -120 -163 -178 -111 -111 -210 -177
-356 -235 -37 -15 -73 -32 -80 -37 -7 -5 -32 -16 -56 -23 -39 -12 -51 -11
-102 6 -32 11 -66 26 -76 35 -19 17 -79 189 -79 227 0 13 -9 60 -20 104 -43
173 -33 305 43 538 l32 100 6 -100 c6 -107 22 -157 60 -192 66 -60 176 -58
242 5 l27 26 0 -127 0 -127 40 0 40 0 0 299 c0 164 3 319 6 345 l7 46 -42 0
c-34 0 -41 -3 -41 -19 0 -48 -11 -53 -46 -22 -39 34 -87 46 -147 37 -47 -8
-102 -46 -112 -77 -4 -11 -9 -18 -12 -16 -3 3 9 34 26 69 47 97 145 197 256
263 113 66 122 70 250 105 143 40 197 39 292 -6z m-577 -416 c47 -32 62 -83
58 -189 -3 -62 -9 -95 -24 -119 -39 -67 -143 -78 -186 -20 -41 56 -43 245 -3
306 31 48 102 57 155 22z"/>
<path d="M11828 9698 c-73 -50 -77 -55 -78 -91 l0 -38 58 39 c31 21 63 42 70
46 9 6 12 -44 12 -233 l0 -241 -80 0 -80 0 0 -35 0 -35 170 -2 c94 -1 182 -2
198 -2 23 -1 27 3 30 32 3 30 2 32 -31 32 -19 0 -54 3 -78 6 l-44 6 0 282 0
281 -35 3 c-28 2 -50 -7 -112 -50z"/>
<path d="M3660 10899 c-144 -14 -268 -38 -430 -85 -444 -130 -505 -174 -974
-694 -71 -78 -158 -202 -216 -305 -18 -33 -61 -103 -95 -155 -89 -136 -130
-214 -160 -304 -31 -93 -42 -224 -26 -309 10 -56 34 -97 45 -78 3 5 -1 14 -9
21 -12 10 -15 36 -15 114 0 182 35 273 206 533 54 84 122 187 149 230 74 115
143 198 327 393 309 328 403 388 776 495 226 64 354 85 572 92 189 6 309 -10
532 -72 214 -58 334 -113 510 -232 213 -145 255 -185 361 -346 52 -79 113
-178 136 -219 112 -203 157 -435 116 -592 -8 -31 -22 -92 -31 -134 -26 -130
-83 -291 -145 -415 -145 -290 -318 -496 -644 -769 -305 -254 -425 -329 -636
-398 -117 -38 -151 -46 -289 -65 -178 -25 -323 -22 -474 9 -230 48 -313 80
-734 282 -180 86 -258 132 -301 177 -29 29 -185 255 -209 302 -49 97 -63 218
-37 315 17 60 77 356 94 460 15 97 33 301 27 308 -3 3 -8 3 -11 0 -14 -14 -88
-313 -120 -488 -20 -107 -42 -225 -50 -262 -40 -180 1 -322 154 -543 107 -155
191 -220 453 -351 319 -160 521 -233 755 -274 354 -61 816 29 1109 216 228
146 524 403 705 614 152 176 312 461 374 666 50 164 95 394 95 484 0 215 -76
425 -252 692 -111 167 -145 206 -254 289 -104 79 -262 183 -329 216 -77 39
-269 105 -389 133 -236 56 -438 71 -666 49z"/>
<path d="M18510 10771 c0 -6 3 -11 8 -11 4 0 57 -9 117 -21 61 -11 156 -24
213 -29 72 -7 223 -39 505 -108 221 -55 465 -114 542 -132 331 -76 442 -105
462 -122 7 -6 14 -5 18 2 3 5 -6 15 -22 20 -15 6 -50 19 -78 30 -64 24 -298
96 -482 149 -79 23 -207 60 -285 82 -79 23 -233 64 -343 91 l-200 50 -227 5
c-163 4 -228 2 -228 -6z"/>
<path d="M3233 10471 c-121 -136 -154 -178 -203 -249 l-55 -80 -117 -58 c-65
-31 -118 -61 -118 -65 0 -13 6 -12 95 16 44 14 81 25 83 25 2 0 -9 -19 -23
-42 -83 -134 -189 -391 -232 -566 -23 -94 -27 -128 -27 -282 -1 -173 -1 -176
31 -262 60 -165 88 -212 166 -282 144 -129 295 -221 422 -256 68 -19 97 -22
200 -18 101 4 149 13 299 52 148 38 197 55 285 102 135 71 185 110 314 244
104 107 155 174 214 280 64 114 111 308 119 490 5 105 3 142 -16 230 -50 245
-169 430 -331 515 -50 26 -107 45 -188 62 -161 34 -429 35 -640 4 -162 -25
-221 -42 -359 -107 -52 -24 -97 -43 -98 -41 -2 2 19 37 46 78 47 69 79 113
150 201 39 48 25 56 -17 9z m899 -200 c195 -39 298 -116 387 -291 127 -247
142 -484 50 -774 -46 -147 -113 -248 -270 -410 -116 -120 -152 -150 -241 -204
-117 -70 -185 -96 -406 -153 -181 -46 -266 -50 -382 -18 -117 32 -291 141
-406 254 -68 67 -74 76 -118 191 -63 164 -71 215 -57 370 16 178 58 331 151
548 38 90 128 263 152 293 5 7 40 22 76 34 37 12 109 42 159 66 152 73 361
109 650 112 122 1 184 -4 255 -18z"/>
<path d="M3785 9855 c-55 -19 -111 -85 -133 -154 -25 -83 -24 -314 3 -396 24
-74 91 -148 150 -164 120 -33 237 20 283 126 65 151 50 413 -29 524 -48 68
-178 98 -274 64z m172 -81 c59 -37 92 -199 74 -358 -12 -102 -28 -143 -70
-179 -62 -52 -164 -31 -201 42 -40 80 -51 296 -20 403 29 100 135 145 217 92z"/>
<path d="M3164 9689 c-42 -12 -100 -78 -116 -131 -7 -24 -13 -92 -13 -153 0
-102 2 -114 30 -170 24 -49 38 -64 75 -82 82 -42 195 -23 245 41 l25 31 0
-152 0 -153 45 0 45 0 0 390 0 390 -45 0 -45 0 0 -40 c0 -44 -9 -50 -28 -19
-30 47 -138 71 -218 48z m174 -79 c49 -30 66 -78 67 -190 0 -79 -4 -103 -23
-142 -35 -71 -114 -98 -182 -63 -47 24 -63 67 -68 175 -5 113 9 172 48 212 23
23 37 28 77 28 30 0 60 -7 81 -20z"/>
<path d="M19485 10394 c-124 -17 -244 -51 -386 -109 -61 -25 -118 -45 -128
-45 -29 0 -161 -48 -210 -77 -25 -14 -70 -44 -100 -66 -29 -22 -140 -79 -245
-128 -105 -49 -192 -93 -194 -98 -7 -20 19 -19 74 3 104 42 112 42 68 5 -99
-83 -243 -233 -311 -323 -159 -212 -229 -403 -267 -731 -5 -40 11 -273 24
-355 17 -101 70 -305 97 -373 14 -33 43 -97 65 -141 134 -266 299 -400 568
-462 107 -24 127 -26 295 -21 173 4 187 6 363 51 311 78 536 169 741 298 165
103 219 147 352 282 152 155 211 228 323 397 95 142 128 204 193 362 41 100
46 122 51 209 6 125 -13 331 -39 416 -44 143 -128 317 -194 398 -97 122 -244
256 -372 340 -140 92 -165 103 -322 149 -110 31 -134 35 -234 34 -62 -1 -157
-8 -212 -15z m379 -104 c130 -33 201 -66 329 -152 106 -71 301 -250 357 -327
42 -57 118 -213 152 -311 27 -78 61 -341 53 -415 -12 -111 -89 -282 -226 -499
-105 -168 -161 -240 -319 -407 -95 -101 -145 -144 -257 -221 -76 -53 -172
-114 -213 -136 -122 -66 -342 -150 -545 -209 -277 -79 -464 -92 -660 -43 -95
24 -211 81 -270 132 -127 112 -266 363 -333 603 -44 159 -55 216 -72 386 -26
260 62 560 234 799 80 111 243 279 386 399 l115 97 200 73 c110 41 250 94 310
118 165 67 271 100 365 114 47 7 105 15 130 19 89 14 150 10 264 -20z"/>
<path d="M19412 9449 c-69 -35 -118 -127 -76 -143 34 -13 53 -5 69 28 28 58
90 84 159 65 46 -13 69 -48 68 -105 0 -61 -28 -98 -135 -187 -128 -104 -190
-186 -185 -240 l3 -32 205 0 205 0 3 33 3 32 -165 0 c-121 0 -166 3 -166 12 0
6 37 46 82 87 183 170 214 204 227 253 36 129 -41 217 -189 218 -47 0 -77 -6
-108 -21z"/>
<path d="M18915 9328 c-89 -20 -130 -99 -130 -253 1 -118 13 -159 60 -205 32
-31 42 -35 104 -38 75 -5 121 12 143 51 11 19 14 4 18 -108 l5 -130 37 -3 37
-3 3 345 3 346 -37 0 c-35 0 -38 -2 -44 -36 -6 -34 -7 -34 -21 -14 -30 42
-108 64 -178 48z m137 -69 c31 -16 51 -71 56 -149 8 -140 -35 -220 -120 -220
-87 0 -118 50 -118 190 0 120 26 178 85 193 23 6 73 -2 97 -14z"/>
<path d="M7522 10328 l-92 -63 0 -44 c0 -52 1 -52 99 18 39 28 73 51 76 51 3
0 5 -133 5 -295 l0 -294 -97 -3 -98 -3 0 -40 0 -40 245 0 245 0 0 40 0 40 -95
5 -95 5 -3 343 -2 342 -48 0 c-43 0 -59 -7 -140 -62z"/>
<path d="M15920 9919 c-95 -19 -154 -86 -186 -210 -24 -94 -15 -311 16 -392
44 -115 115 -167 230 -167 114 0 185 51 231 167 21 52 23 74 23 218 0 175 -14
238 -68 310 -47 62 -153 93 -246 74z m139 -96 c14 -11 37 -41 51 -69 24 -47
25 -58 25 -219 0 -154 -2 -175 -22 -217 -28 -61 -71 -88 -140 -88 -95 0 -136
60 -153 223 -10 97 0 239 20 292 35 92 145 131 219 78z"/>
<path d="M8770 9831 c0 -5 80 -49 178 -97 307 -150 398 -217 644 -468 93 -94
168 -172 168 -172 0 -1 -53 -3 -117 -3 -65 -1 -192 -6 -283 -12 -91 -5 -320
-10 -510 -10 -343 1 -536 -5 -1060 -34 -151 -8 -356 -19 -455 -25 -99 -5 -317
-12 -485 -15 -368 -6 -555 -13 -675 -25 -49 -4 -130 -9 -180 -10 -83 -1 -105
-4 -94 -14 2 -2 180 -7 394 -10 215 -3 473 -11 575 -16 202 -11 766 0 1335 25
182 8 418 17 525 20 227 7 402 19 659 45 102 11 186 18 187 17 1 -1 -63 -40
-142 -87 -146 -86 -368 -243 -479 -340 -98 -85 -209 -195 -368 -365 -83 -88
-154 -161 -159 -163 -4 -2 -8 -10 -8 -18 0 -16 26 -19 35 -4 4 6 75 67 158
137 84 70 226 199 317 287 232 224 292 275 485 412 181 129 222 154 254 154
17 0 44 7 129 35 8 3 -4 22 -33 52 -25 27 -78 86 -118 133 -115 136 -275 291
-363 352 -111 77 -257 149 -391 192 -126 40 -123 40 -123 27z"/>
<path d="M16580 9412 c0 -10 220 -157 280 -187 59 -30 352 -227 415 -280 33
-28 90 -74 127 -103 91 -72 201 -230 211 -304 9 -66 11 -65 -125 -36 -58 12
-63 28 -8 28 23 0 40 5 40 11 0 8 -20 9 -67 3 -84 -10 -195 -8 -270 5 -82 15
-483 52 -768 71 -82 5 -179 12 -215 15 -67 5 -122 8 -420 25 -381 23 -765 65
-1105 121 -368 62 -546 106 -728 183 -59 25 -125 50 -148 56 -22 6 -47 14 -55
17 -8 3 -14 0 -14 -6 0 -6 8 -11 17 -11 9 0 82 -32 162 -71 203 -99 328 -138
671 -210 302 -63 439 -84 875 -134 53 -6 386 -33 500 -40 129 -8 518 -34 595
-40 36 -3 187 -14 335 -25 149 -11 285 -23 302 -26 l33 -6 -73 -47 c-39 -26
-108 -67 -152 -90 -204 -109 -441 -249 -509 -300 -102 -76 -376 -311 -376
-322 0 -5 4 -9 9 -9 16 0 292 180 376 245 44 35 155 109 245 165 314 195 405
255 465 303 l60 49 80 -6 c44 -3 121 -8 170 -12 116 -8 129 0 127 77 -1 42
-12 75 -49 149 -42 85 -59 108 -167 215 -198 198 -419 350 -673 464 -152 68
-173 76 -173 63z"/>
<path d="M1160 9163 c0 -5 60 -39 134 -75 150 -75 192 -107 243 -186 43 -67
40 -72 -77 -106 -47 -13 -130 -38 -185 -55 -215 -64 -437 -96 -606 -88 -65 3
-119 2 -119 -2 0 -15 205 -34 296 -27 132 9 314 42 451 81 67 19 125 35 129
35 13 0 -22 -34 -106 -103 -145 -119 -411 -390 -397 -404 11 -10 161 124 357
322 108 109 213 206 235 217 54 27 75 47 75 70 0 23 -34 92 -68 136 -44 58
-208 153 -304 176 -14 3 -33 9 -42 12 -9 3 -16 2 -16 -3z"/>
</g>
</svg>
