<svg width="1600" height="1200" xmlns="http://www.w3.org/2000/svg" xmlns:svg="http://www.w3.org/2000/svg">
 <!-- Created with SVG-edit - http://svg-edit.googlecode.com/ -->
 <title>zeroesThenOnesDFA</title>
 <g>
  <title>Layer 1</title>
  <circle stroke="#000000" fill-opacity="0.01" id="svg_1" r="183.490204" cy="212.499992" cx="314.999991" stroke-width="5" fill="#ff0000"/>
  <path stroke="#000000" transform="rotate(41.66248321533203 1380.1750488281248,138.42498779296878) " id="svg_8" d="m1272.869187,246.523239l0,-121.610533l0,0c0,-52.238388 42.03713,-94.58598 93.892567,-94.58598l0,0l0,0c24.90185,0 48.783791,9.965282 66.39208,27.703592c17.608275,17.73831 27.500479,41.796624 27.500479,66.882388l0,13.512284l26.826426,0l-53.652859,54.04915l-53.65291,-54.04915l26.826448,0l0,-13.512284c0,-22.387877 -18.015922,-40.536837 -40.239657,-40.536837l0,0l0,0c-22.223764,0 -40.239672,18.14896 -40.239672,40.536837l0,121.610533l-53.652903,0z" fill-opacity="0.01" stroke-linecap="null" stroke-linejoin="null" stroke-dasharray="null" stroke-width="5" fill="#ff0000"/>
  <circle stroke="#000000" id="svg_11" fill-opacity="0.01" r="169.490204" cy="310.999987" cx="1099.999989" stroke-width="5" fill="#ff0000"/>
  <circle stroke="#000000" id="svg_12" fill-opacity="0.01" r="156.490204" cy="980.000008" cx="997.500011" stroke-width="5" fill="#ff0000"/>
  <circle stroke="#000000" id="svg_13" fill-opacity="0.01" r="157.490198" cy="873.000018" cx="311.499989" stroke-width="5" fill="#ff0000"/>
  <path stroke="#000000" transform="rotate(124.33020782470703 1239,1034) " id="svg_14" d="m1121.940557,1142.887699l0,-122.498693l0,0c0,-52.619894 45.858142,-95.276743 102.427053,-95.276743l0,0l0,0c27.165335,0 53.218046,10.038063 72.42686,27.9059c19.208814,17.86786 30.000171,42.101886 30.000171,67.370843l0,13.610963l29.264866,0l-58.529711,54.443899l-58.529754,-54.443899l29.264866,0l0,-13.610963c0,-22.55137 -19.653511,-40.832867 -43.897299,-40.832867l0,0l0,0c-24.24381,0 -43.897299,18.281497 -43.897299,40.832867l0,122.498693l-58.529754,0z" fill-opacity="0.01" stroke-linecap="null" stroke-linejoin="null" stroke-dasharray="null" stroke-width="5" fill="#ff0000"/>
  <path stroke="#000000" id="svg_15" transform="rotate(-131.32818603515625 174.24969482421872,1071.0350341796875) " d="m65.087696,1192.40617l0,-136.54248l0,0c0,-58.652469 42.76431,-106.199687 95.516784,-106.199687l0,0l0,0c25.332618,0 49.627676,11.18887 67.540562,31.105155c17.912886,19.91631 27.976202,46.92863 27.976202,75.094532l0,15.171384l27.290504,0l-54.580988,60.685586l-54.581028,-60.685586l27.290504,0l0,-15.171384c0,-25.136758 -18.327581,-45.514126 -40.935756,-45.514126l0,0l0,0c-22.608194,0 -40.935756,20.377368 -40.935756,45.514126l0,136.54248l-54.581028,0z" fill-opacity="0.01" stroke-linecap="null" stroke-linejoin="null" stroke-dasharray="null" stroke-width="5" fill="#ff0000"/>
  <path stroke="#000000" transform="rotate(15.436946868896484 716.585510253906,271.170867919922) " id="svg_16" d="m659.513306,295.273242c-13.451153,-1.340439 -11.686373,-2.152144 21.017407,-9.666159c16.513822,-3.794187 30.025013,-7.008785 30.025013,-7.143545c0,-0.13475 -45.600336,-0.245009 -101.334397,-0.245009l-101.334397,0l0,-7.106132l0,-7.106132l102.137525,0c78.753781,0 101.258308,-0.214072 98.297819,-0.93502c-2.111813,-0.514259 -16.517516,-3.926796 -32.012687,-7.583402c-29.208588,-6.892791 -29.199421,-8.741269 0.045129,-9.314231c14.553918,-0.285133 241.141108,21.62293 248.929365,24.068284c-75.474213,8.73125 -165.691474,17.87063 -248.79626,25.928966c-4.38193,0 -12.020361,-0.403928 -16.974501,-0.89762l-0.000017,0z" fill-opacity="0.01" stroke-linecap="null" stroke-linejoin="null" stroke-dasharray="null" stroke-width="5" fill="#ff0000"/>
  <path stroke="#000000" id="svg_17" transform="rotate(92.52598571777344 1047.5067138671875,645.6108398437501) " d="m1009.524204,669.713248c-8.951968,-1.34044 -7.777469,-2.15215 13.987425,-9.66616c10.990221,-3.79419 19.982148,-7.00879 19.982148,-7.14355c0,-0.13475 -30.347774,-0.24501 -67.439713,-0.24501l-67.439702,0l0,-7.10613l0,-7.10613l67.974203,0c52.411934,0 67.389061,-0.21407 65.418809,-0.93502c-1.405439,-0.51426 -10.992672,-3.92679 -21.30497,-7.5834c-19.438787,-6.89279 -19.432693,-8.74127 0.030042,-9.31423c9.685871,-0.28514 160.483364,21.62293 165.666582,24.06828c-50.229338,8.73125 -110.270407,17.87063 -165.578006,25.92897c-2.91624,0 -7.99974,-0.40393 -11.296806,-0.89762l-0.000011,0z" fill-opacity="0.01" stroke-linecap="null" stroke-linejoin="null" stroke-dasharray="null" stroke-width="5" fill="#ff0000"/>
  <path stroke="#000000" id="svg_18" transform="rotate(89.83920288085938 315.2662353515625,561.271484375) " d="m276.435806,585.373881c-9.151814,-1.34044 -7.951104,-2.15214 14.299683,-9.66616c11.235573,-3.79418 20.42823,-7.00878 20.42823,-7.14354c0,-0.13475 -31.025266,-0.24501 -68.945247,-0.24501l-68.945247,0l0,-7.10613l0,-7.10613l69.491675,0c53.58199,0 68.893477,-0.21408 66.879238,-0.93502c-1.436826,-0.51426 -11.238084,-3.9268 -21.780588,-7.58341c-19.872752,-6.89279 -19.866513,-8.74127 0.030705,-9.31423c9.902102,-0.28513 164.066036,21.62293 169.364956,24.06829c-51.350657,8.73125 -112.732096,17.87063 -169.274398,25.92896c-2.981349,0 -8.178335,-0.40393 -11.549001,-0.89762l-0.000007,0z" fill-opacity="0.01" stroke-linecap="null" stroke-linejoin="null" stroke-dasharray="null" stroke-width="5" fill="#ff0000"/>
  <path stroke="#000000" id="svg_19" transform="rotate(-172.6696014404297 632.8294067382812,937.28369140625) " d="m594.226341,961.38612c-9.098232,-1.34044 -7.904552,-2.15214 14.215962,-9.66616c11.169791,-3.79418 20.308627,-7.00878 20.308627,-7.14354c0,-0.13475 -30.843619,-0.24501 -68.541586,-0.24501l-68.541586,0l0,-7.10613l0,-7.10613l69.084815,0c53.268278,0 68.49012,-0.21408 66.487673,-0.93502c-1.428414,-0.51426 -11.172287,-3.9268 -21.653067,-7.58341c-19.756401,-6.89279 -19.750199,-8.74127 0.030525,-9.31423c9.844128,-0.28513 163.105462,21.62293 168.373358,24.06829c-51.050009,8.73125 -112.072072,17.87063 -168.28333,25.92896c-2.963894,0 -8.130453,-0.40393 -11.481384,-0.89762l-0.000007,0z" fill-opacity="0.01" stroke-linecap="null" stroke-linejoin="null" stroke-dasharray="null" stroke-width="5" fill="#ff0000"/>
  <text stroke="#000000" transform="matrix(3.1867573261260986,0,0,4.222222328186035,-386.33851697668433,-612.2222423553467) " xml:space="preserve" text-anchor="middle" font-family="serif" font-size="24" id="svg_21" y="202.236842" x="217.706979" fill-opacity="0.01" stroke-linecap="null" stroke-linejoin="null" stroke-dasharray="null" stroke-width="3" fill="#000000">START</text>
  <text stroke="#000000" transform="matrix(6.550000190734862,0,0,4.814815044403076,-5621.025193691254,-1029.111171722412) " xml:space="preserve" text-anchor="middle" font-family="serif" font-size="24" id="svg_22" y="285" x="1025" fill-opacity="0.01" stroke-linecap="null" stroke-linejoin="null" stroke-dasharray="null" stroke-width="3" fill="#000000">A</text>
  <text stroke="#f90000" transform="matrix(6.307887560076892,0,0,5.701801463742185,-1480.048376857665,-4171.674809936042) " xml:space="preserve" text-anchor="middle" font-family="serif" font-size="24" id="svg_23" y="892.981514" x="281.426785" fill-opacity="0.01" stroke-linecap="null" stroke-linejoin="null" stroke-dasharray="null" stroke-width="3" fill="#000000">C</text>
  <text stroke="#007f00" transform="matrix(5.6568648590401835,0,0,5.062271465515778,-4184.41974230131,-3869.861978983478) " xml:space="preserve" text-anchor="middle" font-family="serif" font-size="24" id="svg_24" y="965.967222" x="914.901645" fill-opacity="0.01" stroke-linecap="null" stroke-linejoin="null" stroke-dasharray="null" stroke-width="3" fill="#000000">B</text>
  <text stroke="#000000" transform="matrix(3.2015558129080546,0,0,3.1073977306568805,-279.8188962810163,-2361.3175869723914) " xml:space="preserve" text-anchor="middle" font-family="serif" font-size="24" id="svg_25" y="1138.641329" x="139.738459" fill-opacity="0.01" stroke-linecap="null" stroke-linejoin="null" stroke-dasharray="null" stroke-width="3" fill="#000000">0,1</text>
  <text stroke="#000000" transform="matrix(4.260553359985352,0,0,3.1013824939727783,-4214.672786951065,-2150.797816682607) " xml:space="preserve" text-anchor="middle" font-family="serif" font-size="24" id="svg_26" y="1045" x="1298" fill-opacity="0.01" stroke-linecap="null" stroke-linejoin="null" stroke-dasharray="null" stroke-width="3" fill="#000000">1</text>
  <text stroke="#000000" transform="matrix(4.181286334991455,0,0,3.678899049758911,-4385.850581176579,-73.96272845193744) " xml:space="preserve" text-anchor="middle" font-family="serif" font-size="24" id="svg_27" y="58.785536" x="1394.283917" fill-opacity="0.01" stroke-linecap="null" stroke-linejoin="null" stroke-dasharray="null" stroke-width="3" fill="#000000">0</text>
  <text stroke="#000000" transform="matrix(4.596695564032871,0,0,4.183078670742589,-2530.904261395743,-530.7318807749061) " xml:space="preserve" text-anchor="middle" font-family="serif" font-size="24" id="svg_28" y="180" x="708" fill-opacity="0.01" stroke-linecap="null" stroke-linejoin="null" stroke-dasharray="null" stroke-width="3" fill="#000000">0</text>
  <text stroke="#000000" transform="matrix(3.2293179035186768,0,0,3.0550458431243896,-2442.4615949504077,-1194.9128275029361) " xml:space="preserve" text-anchor="middle" font-family="serif" font-size="24" id="svg_29" y="603" x="1101" fill-opacity="0.01" stroke-linecap="null" stroke-linejoin="null" stroke-dasharray="null" stroke-width="3" fill="#000000">1</text>
  <text stroke="#000000" transform="matrix(3.8333332538604736,0,0,3.4814815521240234,-662.9999814033508,-1240.7407760620117) " xml:space="preserve" text-anchor="middle" font-family="serif" font-size="24" id="svg_30" y="521" x="240" fill-opacity="0.01" stroke-linecap="null" stroke-linejoin="null" stroke-dasharray="null" stroke-width="3" fill="#000000">1</text>
  <text style="cursor: move;" stroke="#000000" transform="matrix(3.828187334836457,0,0,4.433009976584033,-1692.8064582936877,-3255.650732521432) " xml:space="preserve" text-anchor="middle" font-family="serif" font-size="24" id="svg_31" y="971" x="612" fill-opacity="0.01" stroke-linecap="null" stroke-linejoin="null" stroke-dasharray="null" stroke-width="3" fill="#000000">0</text>
 </g>
</svg>